# xmcd
#
# Track frame offsets:
#	150
#	8747
#	19871
#	29718
#	43405
#	56270
#	65219
#	78623
#	88072
#	97473
#	111960
#	121918
#	135130
#	147718
#	159162
#	174087
#	182802
#	195684
#	209469
#	220226
#
# Disc length: 3115 seconds
#
# Revision: 7
# Processed by: cddbd v1.5.2PL0 Copyright (c) Steve Scherf et al.
# Submitted via: audiograbber 1.83.01
#
DISCID=280c2914
DTITLE=Various Artist - Country Greats  [CD04)
DYEAR=1900
DGENRE=Country
TTITLE0=Jim Reeves - If You Were Mine
TTITLE1=Jimmy Dean - Nine Pound Hammer
TTITLE2=Johnny Cash - I Could Never Be Ashamed Of You
TTITLE3=Johnny Lee - Dear Alice
TTITLE4=Patsy Cline - If I Could See The World
TTITLE5=Waylon Jennings - Jole Blon
TTITLE6=Johnny Paycheck - Keeping Up With The Jones
TTITLE7=Burl Ives - Real Roses
TTITLE8=Bill Monroe - Shady Grove
TTITLE9=Ed Bruce and Lynn Anderson - If It Was Easy
TTITLE10=Jim Reeves - Just Call Me Lonesome
TTITLE11=Kenny Rogers - Ruby Don't Take Your Love To Town
TTITLE12=Merle Haggard - If You Want To Be My Woman
TTITLE13=Patsy Cline - In Care Of The Blues
TTITLE14=Johnny Lee - Frisco
TTITLE15=Johnny Cash - I Forgot To Remember To Forget
TTITLE16=Jimmy Dean - One Last Time
TTITLE17=Kenny Rogers - Molly
TTITLE18=Waylon Jennings - Lorena
TTITLE19=Burl Ives - Roll Up Some Inspiration
EXTD=
EXTT0=
EXTT1=
EXTT2=
EXTT3=
EXTT4=
EXTT5=
EXTT6=
EXTT7=
EXTT8=
EXTT9=
EXTT10=
EXTT11=
EXTT12=
EXTT13=
EXTT14=
EXTT15=
EXTT16=
EXTT17=
EXTT18=
EXTT19=
PLAYORDER=
